<svg version="1.1" baseProfile="tiny" id="search" xmlns="http://www.w3.org/2000/svg" xmlns:xlink="http://www.w3.org/1999/xlink" x="0px" y="0px" width="42px" height="42px" viewBox="0 0 42 42">
<path d="M1.504,17.338c0,8.747,7.131,15.827,15.94,15.827c8.796,0,15.938-7.08,15.938-15.827S26.24,1.5,17.444,1.5
	C8.635,1.5,1.504,8.591,1.504,17.338z M6.555,17.338c0-5.979,4.868-10.817,10.89-10.817c6.01,0,10.888,4.839,10.888,10.817
	c0,5.979-4.878,10.818-10.888,10.818C11.423,28.156,6.555,23.316,6.555,17.338z M28.666,31.861l6.855,7.809
	c1.104,1.102,1.817,1.111,2.939,0l2.201-2.181c1.082-1.081,1.15-1.778,0-2.921l-7.896-6.775L28.666,31.861z"/>
</svg>
