<svg xmlns="http://www.w3.org/2000/svg" id="svg14" viewBox="0 0 99.999998 99.999998" y="0px" x="0px" version="1.1">
 <defs id="defs18" />
 <g id="g12">
  <circle id="circle2" style="color:#000000;clip-rule:nonzero;display:inline;overflow:visible;visibility:visible;opacity:1;isolation:auto;mix-blend-mode:normal;color-interpolation:sRGB;color-interpolation-filters:linearRGB;solid-color:#000000;solid-opacity:1;fill:#000000;fill-opacity:1;fill-rule:nonzero;stroke:#ffffff;stroke-width:2;stroke-linecap:round;stroke-linejoin:round;stroke-miterlimit:4;stroke-dasharray:none;stroke-dashoffset:0;stroke-opacity:1;color-rendering:auto;image-rendering:auto;shape-rendering:auto;text-rendering:auto;enable-background:accumulate" cx="50.027821" cy="50.21946" r="3.9234731" />
  <path id="path4" style="color:#000000;clip-rule:nonzero;display:inline;overflow:visible;visibility:visible;opacity:1;isolation:auto;mix-blend-mode:normal;color-interpolation:sRGB;color-interpolation-filters:linearRGB;solid-color:#000000;solid-opacity:1;fill:#000000;fill-opacity:1;fill-rule:nonzero;stroke:#ffffff;stroke-width:3;stroke-linecap:round;stroke-linejoin:round;stroke-miterlimit:4;stroke-dasharray:none;stroke-dashoffset:0;stroke-opacity:1;color-rendering:auto;image-rendering:auto;shape-rendering:auto;text-rendering:auto;enable-background:accumulate" d="m 4.9734042,54.423642 31.7671398,0 c 2.322349,0 4.204185,-1.881836 4.204185,-4.204185 0,-2.322349 -1.881836,-4.204184 -4.204185,-4.204184 l -31.7671398,0 c -2.3223489,-2.82e-4 -4.20418433,1.881554 -4.20418433,4.204184 0,2.322631 1.88183543,4.204185 4.20418433,4.204185 z" />
  <path id="path6" style="fill:#000000;stroke:#ffffff;stroke-width:3;stroke-linecap:round;stroke-linejoin:round;stroke-miterlimit:4;stroke-dasharray:none;stroke-opacity:1;fill-opacity:1" d="m 54.232003,5.1650429 c 0,-2.3223489 -1.881836,-4.20418433 -4.204184,-4.20418433 -2.322349,0 -4.204185,1.88183543 -4.204185,4.20418433 l 0,31.7671401 c 0,2.322349 1.881836,4.204184 4.204185,4.204184 2.322348,0 4.204184,-1.881835 4.204184,-4.204184 l 0,-31.7671401 z" />
  <path id="path8" style="color:#000000;clip-rule:nonzero;display:inline;overflow:visible;visibility:visible;opacity:1;isolation:auto;mix-blend-mode:normal;color-interpolation:sRGB;color-interpolation-filters:linearRGB;solid-color:#000000;solid-opacity:1;fill:#000000;fill-opacity:1;fill-rule:nonzero;stroke:#ffffff;stroke-width:3;stroke-linecap:round;stroke-linejoin:round;stroke-miterlimit:4;stroke-dasharray:none;stroke-dashoffset:0;stroke-opacity:1;color-rendering:auto;image-rendering:auto;shape-rendering:auto;text-rendering:auto;enable-background:accumulate" d="m 99.287826,50.219457 c 0,-2.322349 -1.881835,-4.204184 -4.204184,-4.204184 l -31.76714,0 c -2.322349,0 -4.204184,1.881835 -4.204184,4.204184 0,2.322349 1.881835,4.204185 4.204184,4.204185 l 31.76714,0 c 2.320658,0 4.204184,-1.881836 4.204184,-4.204185 z" />
  <path id="path10" style="color:#000000;clip-rule:nonzero;display:inline;overflow:visible;visibility:visible;opacity:1;isolation:auto;mix-blend-mode:normal;color-interpolation:sRGB;color-interpolation-filters:linearRGB;solid-color:#000000;solid-opacity:1;fill:#000000;fill-opacity:1;fill-rule:nonzero;stroke:#ffffff;stroke-width:3;stroke-linecap:round;stroke-linejoin:round;stroke-miterlimit:4;stroke-dasharray:none;stroke-dashoffset:0;stroke-opacity:1;color-rendering:auto;image-rendering:auto;shape-rendering:auto;text-rendering:auto;enable-background:accumulate" d="m 45.823352,95.27359 c 0,2.322349 1.881836,4.204184 4.204185,4.204184 2.322349,0 4.204184,-1.881835 4.204184,-4.204184 l 0,-31.76714 c 0,-2.322349 -1.881835,-4.204185 -4.204184,-4.204185 -2.322349,0 -4.204185,1.881836 -4.204185,4.204185 l 0,31.76714 z" />
 </g>
</svg>