<svg xmlns="http://www.w3.org/2000/svg" width="256.0px" height="256.0px" viewBox="0 0 256.0 256.0" version="1.1" id="webmail">
  <defs id="defs844" />
  <g id="layer1">
    <g id="g1479">
      <path d="m 53.879938,12.20882 a 2.6850881,2.6850881 0 0 0 -2.16288,2.662 c 0,5.230915 -4.23875,9.483371 -9.56656,9.483371 -5.28104,0 -9.494211,-4.151942 -9.566561,-9.316996 a 2.6850881,2.6850881 0 0 0 -2.99475,-2.662 c -9.11235,1.090376 -16.45657,7.856062 -18.30125,16.720684 a 2.6850881,2.6850881 0 0 0 2.57881,3.244312 c 5.16321,0.171433 9.23381,4.361048 9.23381,9.483378 0,5.230921 -4.23875,9.483376 -9.56656,9.483376 a 2.6850881,2.6850881 0 0 0 -2.662,2.661989 v 18.800375 a 2.6850881,2.6850881 0 0 0 2.662,2.662 c 5.32781,0 9.56656,4.252465 9.56656,9.483375 0,5.230937 -4.23875,9.483375 -9.56656,9.483375 a 2.6850881,2.6850881 0 0 0 -2.662,2.662 v 18.800371 a 2.6850881,2.6850881 0 0 0 2.662,2.662 c 5.32781,0 9.56656,4.25246 9.56656,9.48337 0,5.23094 -4.23875,9.48338 -9.56656,9.48338 a 2.6850881,2.6850881 0 0 0 -2.662,2.662 v 18.80037 a 2.6850881,2.6850881 0 0 0 2.662,2.662 c 5.32781,0 9.56656,4.25247 9.56656,9.48338 0,5.23093 -4.23875,9.48337 -9.56656,9.48337 a 2.6850881,2.6850881 0 0 0 -2.662,2.662 v 18.80038 a 2.6850881,2.6850881 0 0 0 2.662,2.662 c 5.32781,0 9.56656,4.25246 9.56656,9.48337 0,5.12233 -4.07057,9.31192 -9.23381,9.48338 a 2.6850881,2.6850881 0 0 0 -2.57881,3.24431 c 1.84468,8.86462 9.1889,15.63031 18.30125,16.72069 a 2.6850881,2.6850881 0 0 0 2.99475,-2.662 c 0.0724,-5.16505 4.28552,-9.317 9.566561,-9.317 5.32781,0 9.56656,4.25246 9.56656,9.48337 a 2.6850881,2.6850881 0 0 0 2.662,2.662 h 19.13313 a 2.6850881,2.6850881 0 0 0 2.662,-2.662 c 0,-5.23091 4.23878,-9.48337 9.56656,-9.48337 5.327832,0 9.649749,4.27469 9.649749,9.48337 a 2.6850881,2.6850881 0 0 0 2.662,2.662 h 19.049933 a 2.6850881,2.6850881 0 0 0 2.662,-2.662 c 0,-5.23091 4.23878,-9.48337 9.56656,-9.48337 5.32783,0 9.64975,4.27469 9.64975,9.48337 a 2.6850881,2.6850881 0 0 0 2.662,2.662 h 19.04994 a 2.6850881,2.6850881 0 0 0 2.662,-2.662 c 0,-5.20868 4.32194,-9.48337 9.64975,-9.48337 5.32778,0 9.56656,4.25246 9.56656,9.48337 a 2.6850881,2.6850881 0 0 0 2.662,2.662 h 19.04994 a 2.6850881,2.6850881 0 0 0 2.662,-2.662 c -3e-5,-5.20865 4.32197,-9.48337 9.64975,-9.48337 5.13981,0 9.2024,3.99704 9.48337,8.98425 a 2.6850881,2.6850881 0 0 0 3.3275,2.41243 c 7.68883,-2.07918 13.67213,-8.28427 15.30651,-16.13837 a 2.6850881,2.6850881 0 0 0 -2.57881,-3.24431 c -5.16324,-0.17144 -9.23381,-4.36105 -9.23381,-9.48338 0,-5.23091 4.23878,-9.48337 9.56656,-9.48337 a 2.6850881,2.6850881 0 0 0 2.662,-2.662 V 183.2423 a 2.6850881,2.6850881 0 0 0 -2.662,-2.662 c -5.32778,3e-5 -9.56656,-4.25244 -9.56656,-9.48337 0,-5.23091 4.23878,-9.48338 9.56656,-9.48338 a 2.6850881,2.6850881 0 0 0 2.662,-2.662 v -18.80037 a 2.6850881,2.6850881 0 0 0 -2.662,-2.662 c -5.32778,2e-5 -9.56656,-4.25244 -9.56656,-9.48338 0,-5.23091 4.23878,-9.48337 9.56656,-9.48337 a 2.6850881,2.6850881 0 0 0 2.662,-2.662 V 97.060059 a 2.6850881,2.6850881 0 0 0 -2.662,-2.662 c -5.32778,2.7e-5 -9.56656,-4.252438 -9.56656,-9.483375 0,-5.23091 4.23878,-9.483375 9.56656,-9.483375 a 2.6850881,2.6850881 0 0 0 2.662,-2.662 V 53.968934 a 2.6850881,2.6850881 0 0 0 -2.662,-2.661989 c -5.32778,2e-6 -9.56656,-4.25246 -9.56656,-9.483376 0,-5.12233 4.07057,-9.311916 9.23381,-9.483378 a 2.6850881,2.6850881 0 0 0 2.57881,-3.244312 c -1.63438,-7.854108 -7.61768,-14.059204 -15.30651,-16.138372 a 2.6850881,2.6850881 0 0 0 -3.3275,2.412438 c -0.28102,4.987233 -4.34356,8.984246 -9.48337,8.984246 -5.32781,0 -9.64975,-4.274703 -9.64975,-9.483371 a 2.6850881,2.6850881 0 0 0 -2.662,-2.662 h -19.04994 a 2.6850881,2.6850881 0 0 0 -2.662,2.662 c 0,5.230915 -4.23878,9.483371 -9.56656,9.483371 -5.32781,0 -9.64975,-4.274703 -9.64975,-9.483371 a 2.6850881,2.6850881 0 0 0 -2.662,-2.662 h -19.04994 a 2.6850881,2.6850881 0 0 0 -2.662,2.662 c 0,5.208668 -4.32192,9.483371 -9.64975,9.483371 -5.32778,0 -9.56656,-4.252456 -9.56656,-9.483371 a 2.6850881,2.6850881 0 0 0 -2.662,-2.662 H 98.052497 a 2.6850881,2.6850881 0 0 0 -2.662,2.662 c 2.7e-5,5.20865 -4.32197,9.483371 -9.649749,9.483371 -5.32778,0 -9.56656,-4.252456 -9.56656,-9.483371 a 2.6850881,2.6850881 0 0 0 -2.662,-2.662 h -19.13313 a 2.6850881,2.6850881 0 0 0 -0.49912,0 z" id="path3658" style="display:inline;opacity:0.25;fill:#778888;fill-opacity:1;fill-rule:nonzero;stroke:none;stroke-width:2.662" />
      <path d="m 139.77831,35.988084 c -23.31829,-3.13033 -47.681225,3.197985 -66.613805,17.141776 8.42949,2.258673 16.85898,4.517345 25.28848,6.776018 11.432765,-12.005606 26.325075,-21.933252 43.274245,-23.073348 1.26614,-0.593604 -2.35846,-0.79278 -1.94892,-0.844446 z m 23.58829,7.636984 c 13.40609,9.206344 20.19816,24.945513 24.32993,40.118101 8.2078,2.21562 16.45279,4.74992 24.73308,6.46397 -8.40222,-20.42191 -25.54673,-37.232066 -45.64493,-46.468963 -1.64139,-1.09676 -8.14804,-3.036764 -3.41808,-0.113108 z m -9.78264,-2.18842 c -2.81999,1.637052 -2.30027,6.442091 -3.66485,9.429466 -1.67929,7.037959 -4.16452,13.992239 -5.33454,21.083085 9.82834,3.36883 20.19892,5.52232 30.23761,8.41969 3.16432,0.49915 6.65603,2.47784 9.62766,2.06828 -3.79812,-16.829473 -13.85751,-34.718278 -30.86588,-41.000521 z m -4.66078,-1.197479 c -18.33049,-3.253016 -35.4418,7.855365 -47.70632,20.406709 13.15184,3.524029 26.30369,7.048058 39.45554,10.572091 2.92931,-1.502948 2.39847,-6.516742 3.78774,-9.544248 1.65073,-6.972719 4.15632,-13.887163 5.27293,-20.896277 l -0.66111,-0.498922 z M 69.459825,55.973672 c -9.35364,7.762182 -17.84343,17.286057 -23.00093,28.251837 9.34058,2.92688 18.94388,5.13976 28.38648,7.78942 4.46988,-4.1763 6.97283,-12.05846 11.40831,-17.25314 1.41841,-4.40729 11.24034,-10.542951 8.49999,-13.28519 -7.80975,-2.092612 -15.61949,-4.185225 -23.42924,-6.277837 l -1.02501,0.122512 -0.8396,0.652151 z m 28.79837,7.753136 c -7.86973,8.741581 -15.00246,18.370191 -19.86155,29.114181 17.45997,4.96944 35.098435,9.446431 52.627135,14.226261 2.93747,-1.24522 2.42679,-6.50679 3.82089,-9.505001 1.87555,-7.81679 4.60383,-15.55086 5.94915,-23.41911 -9.12694,-3.21031 -18.83129,-5.160681 -28.18237,-7.881907 -4.47751,-1.039896 -8.85359,-2.708231 -13.401365,-3.312824 l -0.95148,0.777867 z m 44.988945,12.039641 c -2.77583,10.35955 -5.55167,20.7191 -8.3275,31.078661 1.28539,2.95077 6.50048,2.40987 9.49299,3.81042 14.53425,3.89444 29.06849,7.78889 43.60275,11.68332 2.26364,-7.70884 0.096,-17.64533 -0.60791,-26.139781 -0.53332,-5.46953 -0.84944,-12.0835 -7.70541,-11.96065 -11.63893,-3.11865 -23.27786,-6.23728 -34.91679,-9.35593 l -0.96417,0.065 -0.57351,0.81874 z m 45.2582,12.11537 c 2.52532,11.53746 2.98787,23.415441 2.69453,35.168531 9.48947,2.87316 19.19312,5.19068 28.76518,7.84956 1.96716,-5.43047 -0.001,-13.684 -0.79514,-20.0663 -1.84367,-5.81077 -1.81853,-14.091661 -6.71221,-17.817511 -7.9889,-2.02988 -15.93372,-4.48928 -23.9497,-6.25496 l -0.15683,0.33572 0.15419,0.78559 z m -144.137635,-0.21 c -5.06159,10.79784 -8.5583,22.613481 -8.85338,34.564441 9.47256,3.09117 19.42672,5.28475 29.08467,8.03039 1.85211,-6.96683 2.01707,-15.18164 4.77562,-22.25291 -0.38265,-4.54186 8.80135,-13.054781 2.31911,-14.280741 -8.88024,-2.29081 -17.72063,-4.92492 -26.6256,-7.00269 l -0.32266,0.24469 -0.37788,0.69686 z m 32.27045,8.64667 c -4.84694,10.920331 -8.25469,22.608801 -9.14366,34.549821 17.64539,5.13263 35.556395,9.58555 53.304065,14.45639 2.95962,-1.42351 2.39856,-6.4982 3.79754,-9.50345 2.11045,-8.64766 5.02014,-17.19868 6.63562,-25.90619 -16.85046,-5.05017 -34.057525,-9.2034 -51.045555,-13.907561 -1.10489,-0.0714 -3.14096,-1.56301 -3.54801,0.31099 z m 57.001525,15.317841 c -2.98541,11.1417 -5.97083,22.28341 -8.95624,33.4251 1.35139,3.02026 6.5092,2.45034 9.52623,3.8574 14.81878,3.89592 29.59497,8.0793 44.44029,11.79597 5.36377,-10.97944 8.80734,-23.23713 9.6953,-35.49014 -14.86902,-4.53061 -30.15381,-8.1583 -45.18295,-12.3412 -2.98859,-0.19826 -7.32929,-3.32167 -9.52263,-1.24713 z m 57.06925,15.26591 c -0.98459,11.94543 -4.26768,23.6356 -9.39838,34.45619 9.55528,2.98008 19.43399,5.26755 29.11376,7.98103 4.01996,-4.81696 5.52138,-12.19248 7.47289,-18.36326 0.4944,-5.43544 4.70634,-13.92696 1.12165,-17.76822 -9.34232,-2.43875 -18.65239,-5.12646 -28.0147,-7.41082 l -0.17849,0.22021 -0.11644,0.8844 z M 35.193425,126.21867 c -0.12202,12.24267 1.70251,24.8059 6.73207,36.00582 7.80254,3.0049 16.26011,4.50597 24.32107,6.9176 2.20552,-4.08103 -1.85677,-13.0039 -1.284,-19.0626 -1.84849,-5.50487 2.62266,-14.90901 -2.47983,-17.81766 -9.0023,-2.26727 -17.91835,-5.09043 -26.97432,-7.01188 l -0.31515,0.96895 z m 31.97294,8.55687 c -0.39345,11.72958 0.53337,23.66489 3.36786,35.05002 5.9847,2.6618 12.82674,3.61134 19.1504,5.59616 7.50877,1.86565 14.929795,4.29327 22.493425,5.8075 3.4014,-10.49534 5.81646,-21.3737 8.83424,-32.01802 -1.439,-2.96448 -6.47893,-2.42354 -9.4921,-3.81041 -14.470085,-3.87725 -28.940185,-7.75451 -43.410285,-11.63176 l -0.76311,0.12363 -0.18104,0.88278 z m 56.236105,15.07612 c -2.67994,10.71697 -6.10104,21.34003 -8.31877,32.11558 13.23496,4.15132 26.87735,7.29103 40.26994,11.05097 5.995,-2.46086 9.37982,-9.90614 13.60124,-14.91614 1.98702,-4.57267 9.98457,-11.99456 6.88346,-15.46701 -16.97676,-4.5489 -33.95351,-9.09782 -50.93027,-13.64672 l -0.99357,0.0465 -0.5127,0.81686 z m 56.16099,15.04572 c -5.19551,10.52223 -12.27621,20.09024 -19.71804,29.01028 7.81197,2.81175 16.21235,4.45752 24.25465,6.81223 6.17296,-1.91601 10.46669,-8.52741 15.03713,-13.12342 3.18131,-4.77061 10.33723,-11.55251 9.41486,-16.1974 -9.24024,-2.47592 -18.48049,-4.95183 -27.72073,-7.42775 l -0.83911,0.0989 -0.42771,0.82645 z m -135.765205,2.15638 c 10.01191,21.64104 28.62484,39.42211 51.12484,47.54468 -2.62669,-2.70176 -13.2991,-10.17642 -16.33596,-17.16202 -5.4847,-7.62558 -7.14869,-17.5012 -11.23307,-25.43533 -7.83888,-1.91903 -15.58709,-4.53918 -23.48254,-6.02071 l -0.0739,1.07233 z m 27.66858,7.32216 c 4.34523,16.56326 13.92112,33.8247 30.713565,40.20409 3.01252,-1.21475 2.42499,-6.45346 3.83253,-9.41624 1.68297,-7.01818 4.13421,-13.95005 5.33421,-21.02249 -7.91542,-2.96693 -16.487805,-4.54132 -24.659295,-6.9655 -5.13419,-1.1868 -10.18064,-3.09855 -15.36997,-3.82972 l 0.14836,1.02958 z m 42.318925,11.3419 c -2.49804,9.91762 -5.61016,19.7449 -7.72251,29.71926 16.45289,3.74641 33.16728,-5.16578 44.77676,-16.36345 6.99853,-4.01909 -1.40915,-5.05231 -4.79769,-5.98796 -10.56852,-2.66331 -21.05107,-5.97799 -31.67343,-8.2334 l -0.58285,0.86538 z m 42.71696,11.4247 c -11.59159,11.81909 -26.7518,21.74244 -43.81293,21.97137 5.7307,1.95076 13.17076,1.72134 19.61922,1.61714 17.65775,-0.95436 35.5569,-6.59304 49.48621,-17.58746 -3.86114,-2.12526 -9.03633,-2.59666 -13.41183,-4.07072 -3.68242,-0.79636 -7.25036,-2.36109 -11.01937,-2.57627 l -0.8623,0.64634 z" style="fill:#ffcc00;fill-opacity:1;stroke-width:1.2375" id="path3882" />
      <path d="m 165.7561,169.22043 c -3.74645,1e-5 -6.84889,-0.52621 -9.30731,-1.57866 -2.45865,-1.05242 -4.50743,-2.45567 -6.14635,-4.20974 -2.57571,1.40326 -5.67815,2.6311 -9.30732,3.68352 -3.62936,0.93551 -7.25862,1.40326 -10.8878,1.40326 -5.6196,0 -10.77081,-0.87703 -15.45366,-2.6311 -4.56592,-1.75404 -8.5464,-4.32666 -11.94146,-7.71786 -3.395181,-3.5081 -6.029324,-7.77631 -7.902443,-12.80465 -1.87322,-5.02826 -2.809803,-10.87513 -2.809756,-17.5406 -4.7e-5,-5.61294 0.878002,-10.87511 2.634147,-15.78654 1.756044,-5.02824 4.331653,-9.35492 7.726832,-12.980057 3.51213,-3.741915 7.72676,-6.665344 12.6439,-8.770302 5.03407,-2.104785 10.71211,-3.157217 17.03415,-3.157307 5.97063,9e-5 11.41453,0.467836 16.33171,1.403246 5.03403,0.935587 8.89745,1.871083 11.59024,2.806497 v 53.674243 c -1.1e-4,3.74203 0.64379,6.37311 1.93171,7.89327 1.28769,1.52021 2.98525,2.28032 5.09268,2.2803 3.04378,2e-5 5.67792,-1.05243 7.90244,-3.15732 2.34133,-2.10484 4.2145,-4.85287 5.61951,-8.24408 1.52182,-3.39115 2.63401,-7.19161 3.33659,-11.40139 0.7023,-4.32664 1.05352,-8.71178 1.05366,-13.15545 -1.4e-4,-7.36699 -1.28795,-14.26629 -3.86342,-20.697923 -2.57574,-6.548408 -6.26354,-12.278334 -11.06341,-17.189793 -4.80012,-4.911271 -10.65377,-8.7702 -17.56098,-11.576801 -6.79035,-2.806386 -14.45863,-4.209632 -23.00488,-4.209744 -8.54642,1.12e-4 -16.39031,1.461828 -23.53171,4.385149 -7.141515,2.806601 -13.287851,6.899405 -18.439023,12.278423 -5.151255,5.262273 -9.190275,11.75229 -12.11707,19.470079 -2.809785,7.71793 -4.214662,16.48823 -4.214636,26.31091 -2.6e-5,10.29051 1.521922,19.35316 4.565854,27.18794 3.043867,7.71788 7.258499,14.20788 12.643901,19.47005 5.50239,5.14525 11.941404,9.00418 19.317074,11.57681 7.49261,2.68954 15.68772,4.03432 24.58537,4.03434 6.90722,-2e-5 12.58526,-0.4093 17.03414,-1.22784 4.56575,-0.81857 7.49258,-1.46173 8.7805,-1.92946 l 1.75609,12.98004 c -1.99035,0.7016 -5.61962,1.4617 -10.88781,2.28028 -5.15131,0.81854 -10.71229,1.22782 -16.68292,1.22783 -10.41959,-2e-5 -20.25373,-1.5202 -29.50244,-4.56055 -9.248832,-2.92346 -17.326875,-7.48401 -24.234149,-13.68167 -6.907346,-6.08075 -12.409779,-13.85708 -16.507319,-23.32901 -3.9805,-9.58884 -5.970741,-20.93175 -5.97073,-34.02877 -1.1e-5,-12.62918 1.99023,-23.67975 5.97073,-33.151741 3.980468,-9.471836 9.307293,-17.306631 15.980488,-23.504411 6.790206,-6.314507 14.575561,-11.050463 23.3561,-14.20789 8.89749,-3.157185 18.26334,-4.735841 28.09756,-4.735963 9.5999,1.22e-4 18.67307,1.578778 27.21952,4.735963 8.54622,3.040487 16.03889,7.542572 22.47804,13.506265 6.43889,5.84697 11.53157,12.980142 15.27806,21.399539 3.74618,8.302628 5.61935,17.716078 5.6195,28.240368 -1.5e-4,7.95179 -0.93673,14.96803 -2.80975,21.04873 -1.75625,6.08077 -4.15625,11.22601 -7.2,15.43573 -3.04405,4.09282 -6.67331,7.19166 -10.88781,9.29652 -4.21476,2.10488 -8.66354,3.15732 -13.34634,3.15731 m -35.12195,-14.20788 c 2.45844,2e-5 4.91698,-0.23386 7.37561,-0.70162 2.57551,-0.58467 4.85843,-1.40323 6.84878,-2.45569 -0.35131,-1.52016 -0.58547,-3.04034 -0.70244,-4.56056 -0.11718,-1.52015 -0.17571,-2.98187 -0.1756,-4.38515 V 101.6891 c -0.70254,-0.23379 -2.04888,-0.46768 -4.03903,-0.70163 -1.99034,-0.23379 -4.21472,-0.35072 -6.67317,-0.35079 -8.31227,7e-5 -14.51715,2.57269 -18.61463,7.71786 -4.09763,5.14531 -6.14641,11.63533 -6.14634,19.47008 -7e-5,8.30259 1.99017,14.90954 5.97073,19.82088 3.98041,4.91139 9.36577,7.36708 16.15609,7.36705" id="path4159" style="font-style:normal;font-variant:normal;font-weight:normal;font-stretch:normal;font-size:48.7522px;line-height:125%;font-family:Ubuntu;-inkscape-font-specification:Ubuntu;text-align:start;letter-spacing:0px;word-spacing:0px;writing-mode:lr-tb;text-anchor:start;display:inline;opacity:0.8;mix-blend-mode:normal;fill:#003366;fill-opacity:1;stroke:none;stroke-width:3.6" />
    </g>
  </g>
</svg>
