<svg xmlns:dc="http://purl.org/dc/elements/1.1/" xmlns:cc="http://creativecommons.org/ns#" xmlns:svg="http://www.w3.org/2000/svg" xmlns="http://www.w3.org/2000/svg" xmlns:xlink="http://www.w3.org/1999/xlink" xml:space="preserve" style="enable-background:new 0 0 113.1 46.2;" viewBox="0 0 113.1 46.2" y="0px" x="0px" id="Layer_1" version="1.1">
<defs id="defs22"/>
<g id="g17">
    <defs id="defs8">
        <rect height="46.2" width="113.1" id="SVGID_1_"/>
    </defs>
    <clipPath id="SVGID_2_">
        <use id="use10" style="overflow:visible;" xlink:href="#SVGID_1_"/>
    </clipPath>
    <path style="fill:#3683c5" transform="matrix(0.42622951,0,0,0.40229725,5.1914753,1.8540983)" id="path13" clip-path="url(#SVGID_2_)" d="m 29.4,26.1 c -1.6,1.1 -2.6,1.8 -3.1,2.1 -2.3,1.4 -4.4,2.1 -6.3,2.1 -1.1,0 -2.1,-0.2 -3.1,-0.7 -1,-0.5 -1.8,-1.1 -2.3,-1.9 -0.5,-0.8 -0.8,-1.6 -0.8,-2.6 0,-1.4 0.5,-3.1 1.4,-5.2 1.3,-3.1 2,-4.8 2.1,-5 0,-0.2 -0.1,-0.4 -0.1,-0.6 -0.6,0.3 -1,0.5 -1.3,0.6 -1.2,0.8 -2.5,1.7 -3.7,2.7 -0.9,0.8 -2,1.9 -3.3,3.2 -0.3,1.6 -0.4,3.2 -0.4,4.7 0,1.2 0.1,2.4 0.2,3.6 l -8,1.3 C 0.3,27.8 0,25.4 0,23.2 0,21.8 0.1,20.4 0.4,19 0.7,17.6 1.2,16 1.9,14.2 2.3,13 3,11.4 3.9,9.6 L 13.1,8 c -0.6,1.4 -1,2.5 -1.3,3.2 -0.5,1.2 -0.9,2.3 -1.2,3.3 2.2,-2 4.4,-3.6 6.6,-4.7 1.8,-0.9 3.4,-1.3 4.8,-1.3 0.8,0 1.6,0.2 2.5,0.5 0.8,0.3 1.4,0.8 1.8,1.5 0.4,0.7 0.6,1.5 0.6,2.4 0,1.3 -0.4,3 -1.1,4.9 -0.9,2.2 -1.7,4.4 -2.6,6.6 0,0.3 0.1,0.5 0.3,0.6 0.2,0.1 0.4,0.1 0.7,0.1 0.9,0 2.2,-0.5 4,-1.4 -0.2,-0.6 -0.2,-1.3 -0.2,-2 0,-1.1 0.2,-2.1 0.5,-3.1 0.3,-1 0.8,-2 1.4,-3.1 1.1,-1.8 2.7,-3.4 4.6,-4.6 2,-1.3 4.1,-2.1 6.3,-2.5 0.8,-0.1 1.4,-0.1 1.9,-0.1 1.5,0 2.8,0.2 3.9,0.7 1.1,0.5 2.1,1.3 2.9,2.4 0.4,0.7 0.7,1.4 0.7,2.1 0,1.1 -0.6,2.2 -1.7,3.3 -0.8,0.8 -1.9,1.5 -3.2,2.1 -1.3,0.7 -2.7,1.2 -4,1.7 -1,0.3 -2.3,0.7 -4.1,1.1 0.6,1.2 1.4,2.2 2.5,2.9 1.1,0.7 2.2,1.1 3.4,1.1 1.8,0 3.6,-0.5 5.4,-1.4 0.1,0 1.5,-0.9 4.2,-2.6 0,-0.2 0,-0.4 0.1,-0.7 0.1,-0.6 0.2,-1.4 0.4,-2.4 0.1,-0.4 0.2,-0.7 0.2,-1 L 63,17 c -0.2,0.8 -0.5,1.6 -0.7,2.5 -0.3,1 -0.4,1.8 -0.4,2.5 0,1.1 0.2,1.8 0.6,2.2 0.4,0.4 1,0.6 1.8,0.6 1.2,0 2.7,-0.5 4.5,-1.5 0.9,-0.5 1.6,-1 2.1,-1.3 0,-0.4 0,-0.7 0.1,-1.1 0.1,-0.6 0.2,-1.4 0.4,-2.4 0.1,-0.4 0.2,-0.7 0.2,-1 L 81,17 c -0.2,0.8 -0.5,1.6 -0.7,2.5 -0.3,1 -0.4,1.8 -0.4,2.5 0,1.1 0.2,1.8 0.6,2.2 0.4,0.4 1,0.6 1.8,0.6 1.2,0 2.7,-0.5 4.5,-1.5 l 1.4,-0.8 c 0,-0.3 -0.1,-0.6 -0.1,-1 0,-1.1 0.2,-2.1 0.5,-3.1 0.3,-1 0.8,-2 1.4,-3.1 1.1,-1.8 2.7,-3.4 4.6,-4.6 2,-1.3 4.1,-2.1 6.3,-2.5 0.8,-0.1 1.4,-0.1 1.9,-0.1 1.5,0 2.8,0.2 3.9,0.7 1.1,0.5 2.1,1.3 2.9,2.4 0.4,0.7 0.7,1.4 0.7,2.1 0,1.1 -0.6,2.2 -1.7,3.3 -0.8,0.8 -1.9,1.5 -3.2,2.1 -1.4,0.7 -2.7,1.2 -4,1.7 -1,0.3 -2.3,0.7 -4.1,1.1 0.6,1.2 1.4,2.2 2.5,2.9 1.1,0.7 2.2,1.1 3.4,1.1 1.8,0 3.6,-0.5 5.4,-1.4 0.1,0 1.6,-1 4.5,-2.9 v 3 c -0.3,0.2 -1.3,0.9 -3.2,2.3 -1.4,1 -2.5,1.7 -3.4,2.1 -2.2,1 -4.6,1.5 -7.3,1.5 -1.8,0 -3.3,-0.2 -4.7,-0.6 -1.4,-0.4 -2.6,-1.2 -3.8,-2.2 -0.7,-0.6 -1.3,-1.4 -1.7,-2.1 -2,1.4 -3.4,2.4 -4.5,3 -2.3,1.3 -4.5,2 -6.4,2 -1.1,0 -1.9,-0.1 -2.9,-0.5 C 73.5,29 72.3,28.1 71.7,26.9 71.4,26.3 71.1,25.7 71,25 c -2.1,1.5 -3.6,2.5 -4.7,3.2 -2.3,1.3 -4.5,2 -6.4,2 -1.1,0 -1.9,-0.1 -2.9,-0.5 -1.7,-0.7 -2.9,-1.6 -3.5,-2.8 -0.4,-0.7 -0.7,-1.5 -0.8,-2.3 -0.5,0.3 -1.4,1 -2.9,2.1 -1.4,1 -2.5,1.7 -3.4,2.1 -2.2,1 -4.6,1.5 -7.3,1.5 -1.8,0 -3.3,-0.2 -4.7,-0.6 -1.4,-0.4 -2.6,-1.2 -3.8,-2.2 -0.5,-0.6 -0.9,-1 -1.2,-1.4 M 42.8,14 c 0,-0.2 0.1,-0.4 0.1,-0.8 0,-1.2 -0.5,-1.7 -1.5,-1.7 -0.1,0 -0.4,0 -0.7,0.1 -1.3,0.3 -2.4,1.2 -3.1,2.5 -0.8,1.4 -1.1,2.8 -1.1,4.3 1.9,-0.5 3.2,-1 4,-1.5 1.3,-0.7 2.1,-1.7 2.3,-2.9 M 51.9,14.2 53.3,9 56,8.8 58.6,1.7 68.4,0 65.6,8.4 70,8.2 l -1.2,5 c -5.6,0.3 -11.2,0.7 -16.9,1 m 18.3,0 1.3,-5.2 2.7,-0.1 2.6,-7.1 9.9,-1.8 -2.8,8.4 4.4,-0.2 -1.2,5 c -5.6,0.3 -11.3,0.7 -16.9,1 M 103,14 c 0,-0.2 0.1,-0.4 0.1,-0.8 0,-1.2 -0.5,-1.7 -1.5,-1.7 -0.1,0 -0.4,0 -0.7,0.1 -1.3,0.3 -2.4,1.2 -3.1,2.5 -0.8,1.4 -1.1,2.8 -1.1,4.3 1.9,-0.5 3.2,-1 4.1,-1.5 1.2,-0.7 2,-1.7 2.2,-2.9" class="st0"/>
    <g transform="matrix(1.2118865,0,0,0.76767691,-0.46687306,17.160679)" id="text28" style="fill:#002163;fill-opacity:1;stroke:none" aria-label="latte">
        <path id="path4538" style="fill:#002163;fill-opacity:1" d="m 22.468957,33.962952 h -6.542969 l 6.09375,-30.4687503 h 6.542969 z"/>
        <path id="path4540" style="fill:#002163;fill-opacity:1" d="m 37.390832,33.962952 q -0.175781,-0.507813 -0.273438,-1.09375 -0.09766,-0.605469 -0.117187,-1.289063 -1.09375,1.308594 -2.402344,2.050781 -1.308594,0.722657 -3.027344,0.722657 -2.675781,0 -4.160156,-1.738282 -1.464844,-1.738281 -0.898437,-4.609375 0.683593,-3.417968 3.066406,-4.980468 2.402344,-1.582032 7.070312,-1.582032 h 2.03125 l 0.3125,-1.503906 q 0.273438,-1.484375 -0.07813,-2.128906 -0.351562,-0.664063 -1.503906,-0.664063 -0.898437,0 -1.445312,0.527344 -0.546875,0.507813 -0.761719,1.660156 h -6.503906 q 0.625,-3.242187 3.300781,-5.058593 2.695312,-1.835938 6.796875,-1.835938 3.515625,0 5.488281,1.953125 1.972656,1.933594 1.25,5.585938 l -1.582031,7.96875 q -0.371094,1.835937 -0.390625,3.183593 0,1.347657 0.273437,2.832032 z m -2.871094,-4.296875 q 0.761719,0 1.484375,-0.351563 0.742188,-0.351562 1.289063,-0.9375 l 0.683593,-3.417969 h -1.972656 q -1.230469,0 -1.972656,0.761719 -0.722656,0.761719 -0.9375,1.933594 -0.214844,0.976562 0.175781,1.503906 0.410156,0.507813 1.25,0.507813 z"/>
        <path id="path4542" style="fill:#002163;fill-opacity:1" d="m 59.129113,7.5762329 -1.054687,5.2539061 h 3.125 l -0.898438,4.570313 h -3.144531 l -1.914063,9.667968 q -0.253906,1.230469 0.05859,1.679688 0.3125,0.449219 1.054688,0.449219 0.429687,0 0.703125,-0.03906 0.273437,-0.03906 0.722656,-0.15625 l -0.507813,4.785156 q -0.9375,0.292969 -1.777343,0.429688 -0.839844,0.136719 -1.835938,0.136719 -2.988281,0 -4.355469,-1.738282 -1.347656,-1.738281 -0.585937,-5.507812 l 1.933594,-9.707031 h -2.5 l 0.898437,-4.570313 h 2.519531 l 1.054688,-5.2539061 z"/>
        <path id="path4544" style="fill:#002163;fill-opacity:1" d="m 72.254113,7.5762329 -1.054687,5.2539061 h 3.125 l -0.898438,4.570313 h -3.144531 l -1.914063,9.667968 q -0.253906,1.230469 0.05859,1.679688 0.3125,0.449219 1.054688,0.449219 0.429687,0 0.703125,-0.03906 0.273437,-0.03906 0.722656,-0.15625 l -0.507813,4.785156 q -0.9375,0.292969 -1.777343,0.429688 -0.839844,0.136719 -1.835938,0.136719 -2.988281,0 -4.355469,-1.738282 -1.347656,-1.738281 -0.585937,-5.507812 l 1.933594,-9.707031 h -2.5 l 0.898437,-4.570313 h 2.519531 l 1.054688,-5.2539061 z"/>
        <path id="path4546" style="fill:#002163;fill-opacity:1" d="m 81.726769,34.353577 q -4.316406,0 -6.503906,-2.890625 -2.167969,-2.910157 -1.445312,-7.363282 l 0.117187,-0.742187 q 0.800781,-5.117188 3.554688,-8.027344 2.773437,-2.910156 7.324218,-2.890625 3.964844,0 5.878907,2.558594 1.914062,2.558594 1.210937,7.011719 l -0.546875,3.457031 H 80.144738 q -0.01953,1.796875 0.761719,2.8125 0.800781,0.996094 2.519531,0.996094 1.699219,0 2.8125,-0.292969 1.132813,-0.292969 2.792969,-0.996094 l 0.371094,4.414063 q -1.386719,0.859375 -3.398438,1.40625 -2.011719,0.546875 -4.277344,0.546875 z m 2.246094,-16.835938 q -1.210937,0 -1.953125,1.015625 -0.742187,0.996094 -1.210937,2.8125 h 4.785156 l 0.09766,-0.507812 q 0.253906,-1.71875 -0.136719,-2.519532 -0.371093,-0.800781 -1.582031,-0.800781 z"/>
    </g>
</g>
</svg>
