<svg xmlns="http://www.w3.org/2000/svg" xmlns:xlink="http://www.w3.org/1999/xlink" version="1.1" id="Layer_1" x="0px" y="0px" viewBox="0 0 251.8 63.9" enable-background="new 0 0 251.8 63.9" xml:space="preserve">
<g>
	<path fill="#FAA523" d="M120.7,56.8c0,0.1,0,0.2,0,0.3c0,0.2,0.1,0.3,0.4,0.3c0.5,0,1.8-0.6,2.5-0.9l1.3-6l2.9-0.4l-2.1,9.8h-2.4   l0-0.9c-1.5,0.7-2.7,1.1-3.8,1.1c-1.3,0-1.7-0.7-1.7-2c0-0.4,0.1-0.7,0.1-1.1l1.4-6.5l2.9-0.4L120.7,56.8z"/>
	<path fill="#FAA523" d="M127.8,59.4l0.6-2.1c0.7,0.3,1.5,0.5,2.6,0.5c0.9,0,1-0.3,1.1-0.7c0.1-0.4-0.2-0.7-1.2-1.2   c-2-1.1-2-1.8-1.7-3.2c0.4-2.1,1.1-2.6,3.7-2.6c0.9,0,2.1,0.2,2.8,0.5l-0.5,2.1c-0.7-0.2-1.7-0.4-2.4-0.4c-0.8,0-1,0.1-1.1,0.6   c-0.1,0.5,0,0.6,0.9,1c2.2,1.2,2.5,1.6,2.2,3.1c-0.5,2.2-1.1,3-4,3C129.9,60.1,128.6,59.8,127.8,59.4z"/>
	<path fill="#FAA523" d="M136.8,53.7c0.5-2.2,1.5-3.6,4.5-3.6c1.8,0,3.2,0.8,3.1,2.4c-0.1,1.9-1.1,2.7-3.5,3.5   c-1.2,0.4-1.2,0.4-2,0.6l-0.1,0.7c-0.1,0.4,0,0.7,0.5,0.7c1,0,2.5-0.5,3.8-1.1l0.5,2c-1.2,0.7-3,1.3-4.7,1.3c-2,0-2.8-0.9-2.8-2.5   c0-0.4,0.1-0.7,0.2-1.2L136.8,53.7z M141.9,52.8c0-0.3-0.3-0.6-0.8-0.6c-1,0-1.3,0.6-1.5,1.4l-0.1,0.7c0.5-0.1,0.7-0.2,1.3-0.3   C141.5,53.7,141.8,53.3,141.9,52.8z"/>
	<path fill="#FAA523" d="M151.6,52.6c-1.2,0.7-1.7,0.9-2.8,1.6l-1.2,5.7h-2.8l2-9.4l2.5-0.4l-0.1,1.3c0.9-0.6,1.7-0.9,2.6-1.3   L151.6,52.6z"/>
	<path fill="#FAA523" d="M157.2,50.5l2.9-0.4l-2.1,9.8h-2.8L157.2,50.5z M158.1,46.2l2.9-0.4l-0.6,3l-2.9,0.4L158.1,46.2z"/>
	<path fill="#FAA523" d="M167.3,53.3c0-0.1,0-0.2,0-0.3c0-0.2-0.1-0.3-0.4-0.3c-0.5,0-1.8,0.5-2.5,0.9l-1.3,6.2h-2.8l2-9.4l2.5-0.4   l-0.1,1.1c1.5-0.7,2.7-1.1,3.8-1.1c1.3,0,1.7,0.7,1.7,2c0,0.3,0,0.6-0.1,1.1l-1.4,6.7H166L167.3,53.3z"/>
	<path fill="#FAA523" d="M175.9,52.5l-1,4.8c0,0.1,0,0.2,0,0.3c0,0.1,0.1,0.2,0.3,0.2c0.5,0,1-0.2,1.5-0.4l0.5,1.9   c-0.8,0.4-2,0.8-3.1,0.8c-1.4,0-2.1-0.7-2.1-1.8c0-0.1,0-0.3,0.1-0.4l1.1-5.3h-1.4l0.5-2.2h1.4l0.5-2.3l2.9-0.4l-0.6,2.7h2.3   l-0.6,2.2H175.9z"/>
	<path fill="#FAA523" d="M179.2,53.7c0.5-2.2,1.5-3.6,4.5-3.6c1.8,0,3.2,0.8,3.1,2.4c-0.1,1.9-1.1,2.7-3.5,3.5   c-1.2,0.4-1.2,0.4-2,0.6l-0.1,0.7c-0.1,0.4,0,0.7,0.5,0.7c1,0,2.5-0.5,3.8-1.1l0.5,2c-1.2,0.7-3,1.3-4.7,1.3c-2,0-2.8-0.9-2.8-2.5   c0-0.4,0.1-0.7,0.2-1.2L179.2,53.7z M184.2,52.8c0-0.3-0.3-0.6-0.8-0.6c-1,0-1.3,0.6-1.5,1.4l-0.1,0.7c0.5-0.1,0.7-0.2,1.3-0.3   C183.9,53.7,184.2,53.3,184.2,52.8z"/>
	<path fill="#FAA523" d="M194,52.6c-1.2,0.7-1.7,0.9-2.8,1.6l-1.2,5.7h-2.8l2-9.4l2.5-0.4l-0.1,1.3c0.9-0.6,1.7-0.9,2.6-1.3   L194,52.6z"/>
	<path fill="#FAA523" d="M192.8,62.3c1-1,1.2-1.5,1.3-2.4l1.6-7.3h-1.4l0.5-2.3h1.4l0.3-1.3c0.5-2.1,1.3-3.1,3.6-3.1   c0.8,0,1.7,0.1,2.5,0.4l-0.6,2.2c-0.4-0.2-1.2-0.3-1.6-0.3c-0.6,0-0.8,0.2-0.9,0.7l-0.3,1.4h2.5l-0.7,2.3h-2.3l-1.6,7.6   c-0.3,1.3-0.8,2.3-2.3,3.8L192.8,62.3z"/>
	<path fill="#FAA523" d="M206,59.9l0-0.8c-0.7,0.5-1.7,1-3.1,1c-2.1,0-2.5-1.3-2-3.4l0.5-2.6c0.5-2.3,1.4-4,5.2-4   c1,0,2.3,0.2,3.6,0.6l-1.9,9.2H206z M203.5,56.9c-0.1,0.5,0,0.7,0.5,0.7c0.7,0,1.5-0.4,2.1-0.9l0.9-4.2c-0.4-0.1-0.8-0.1-1.1-0.1   c-1.4,0-1.6,0.7-1.9,1.6L203.5,56.9z"/>
	<path fill="#FAA523" d="M210.9,57.6c0-0.5,0.1-0.9,0.2-1.5l0.6-2.7c0.6-2.7,2-3.4,4.7-3.4c0.8,0,1.7,0.2,2.2,0.4l-0.8,2.2   c-0.5-0.2-1-0.3-1.6-0.3c-1.3,0-1.7,0.4-1.9,1.5l-0.6,2.9c0,0.1,0,0.3-0.1,0.4c0,0.3,0.1,0.5,0.5,0.5c0.7,0,2-0.4,2.7-0.6l0.2,2.2   c-0.8,0.4-2.2,0.7-3.2,0.7C211.7,60.1,210.8,59.3,210.9,57.6z"/>
	<path fill="#FAA523" d="M219.5,53.7c0.5-2.2,1.5-3.6,4.5-3.6c1.8,0,3.2,0.8,3.1,2.4c-0.1,1.9-1.1,2.7-3.5,3.5   c-1.2,0.4-1.2,0.4-2,0.6l-0.1,0.7c-0.1,0.4,0,0.7,0.5,0.7c1,0,2.5-0.5,3.8-1.1l0.5,2c-1.2,0.7-3,1.3-4.7,1.3c-2,0-2.8-0.9-2.8-2.5   c0-0.4,0.1-0.7,0.2-1.2L219.5,53.7z M224.6,52.8c0-0.3-0.3-0.6-0.8-0.6c-1,0-1.3,0.6-1.5,1.4l-0.1,0.7c0.5-0.1,0.7-0.2,1.3-0.3   C224.2,53.7,224.5,53.3,224.6,52.8z"/>
</g>
<path fill-rule="evenodd" clip-rule="evenodd" fill="#FAA523" d="M47.5,2.4H6.1C2.8,2.4,0,5.3,0,8.6v1.3v7.3v5.9  c0,14.6,12.4,26.4,27.1,26.4c14.7,0,27.1-11.8,27.1-26.4v-5.9V9.9V8.6C54.2,5.3,50.8,2.4,47.5,2.4"/>
<path fill-rule="evenodd" clip-rule="evenodd" fill="#FFFFFF" d="M9.3,23.5c0,9.7,7.8,17.5,17.7,17.5c9.8,0,17.7-7.9,17.7-17.7h-8.9  c0,4.9-3.6,8.9-8.6,8.9c-4.9,0-8.6-3.8-8.6-8.7V15H9.3V23.5z"/>
<path fill-rule="evenodd" clip-rule="evenodd" fill="#FFFFFF" d="M9.3,23.3c0,9.7,7.8,17.6,17.7,17.6c9.8,0,17.7-7.8,17.7-17.6h-8.9  c0,4.9-3.6,8.8-8.6,8.8c-4.9,0-8.6-3.9-8.6-8.8V15H9.3V23.3z"/>
<polygon fill-rule="evenodd" clip-rule="evenodd" fill="#FFFFFF" points="37.9,9.6 35.9,18.1 44.5,20.3 46.7,11.8 "/>
<path fill="#333333" d="M224.7,14.8l0.3,1.3c0.1,0.4-0.2,0.7-0.5,0.7"/>
<path fill="#333333" d="M199.1,12.5c-0.1,0.4-0.2,0.8-0.2,1.2l-2.8,13.1l3-13.8L199.1,12.5z"/>
<polygon fill="#333333" points="115.1,21.3 113.5,26.8 115.1,21.3 "/>
<path fill="#333333" d="M225,16.2l-0.8-3.4c-0.6-2.5-2.4-3.6-6.5-3.6h-17.1c-0.4,0-0.8,0.2-0.9,0.6l-6.5,30.7  c-0.1,0.4-0.1,0.7-0.1,0.9c0,0.2,0.8,0.2,1.2,0.2h5.9c0.4,0,1.1,0,1.3-0.1c0.2-0.1,0.3-0.7,0.4-1.1l2.1-10.8l2.6-12  c0.1-0.4,0.5-0.7,0.9-0.7l16.9,0C224.9,16.9,225.1,16.6,225,16.2"/>
<path fill="#333333" d="M249.1,3.7c-0.4,0-7.5,0-7.5,0c-0.4,0-0.9,0.4-1.1,0.7l-13.2,19.4c-0.2,0.3-0.5,0.3-0.6-0.1l-1-4.2  c-0.1-0.4-0.5-0.7-0.9-0.7h-8.5c-0.4,0-0.6,0.3-0.5,0.7l3.8,13.3c0.1,0.4,0.1,1,0,1.4l-1.8,6.7c-0.1,0.4,0.1,0.5,0.5,0.5h8.4  c0.4,0,0.8-0.1,0.9-0.5l1.8-6.8c0.1-0.4,0.4-0.9,0.6-1.2l21.5-28.5c0.2-0.3,0.2-0.7-0.2-0.7L249.1,3.7z"/>
<path fill="#333333" d="M160.9,9.1h-7.6c-0.4,0-0.8,0.1-0.9,0.5l-2.5,11.8l-2.5,11.3c-0.1,0.4-0.5,0.4-0.9,0.4h-5  c-5,0-4.4-3.1-3.4-7.8c0,0,3.2-15.6,3.2-15.6c0.1-0.4-0.2-0.5-0.6-0.5h-7.3c-0.4,0-0.8,0.1-0.9,0.5l-2.9,15.6  c-1.5,8.5-1.5,15.9,8.3,16.1c0.2,0,15.5,0,15.5,0c0.4,0,0.8-0.1,0.9-0.5l3.3-15.7L161,9.5C161,9.5,161.1,9.1,160.9,9.1z"/>
<path fill="#333333" d="M84.8,9.1h-8.2c-0.4,0-0.8,0.1-0.9,0.5L74.3,16c-0.1,0.4,0.2,0.7,0.6,0.7h7.8c0.4,0,0.8-0.4,0.9-0.7L85,9.5  C85,9.5,85.1,9.1,84.8,9.1z"/>
<path fill="#333333" d="M74.3,18.8c-0.4,0-0.8,0.3-0.9,0.7l-1.1,4.9l-2.5,11.3c0,0-1.3,6-1.4,6.4c0,0-1.1,4.3-3.7,4.2  c-1.2-0.1-2.6-0.4-2.6-0.4h0c-0.7-0.2-0.8,0.5-0.9,0.9l-1.6,7c-0.1,0.4,0.2,0.7,0.5,0.7c0,0,3.5,0.5,6,0.5h0.4  c6.2,0,9.4-3.6,11.5-13.4l2.4-11.4l2.3-10.6c0.1-0.4-0.1-0.7-0.5-0.7"/>
<path fill="#333333" d="M180.3,9.1c-13.8,0-17.1,8.5-18.9,17c-1.8,8.6-1.7,15.4,12.6,15.4h0.5c5.7,0,12.5,0,12.5,0  c0.4,0,0.8-0.4,0.8-0.7l1.4-5.5c0.1-0.4-0.2-0.5-0.6-0.5h-12.8c-4.6,0-6.3-1.4-6.1-4.6c0-0.4,0.4-1.3,0.8-1.3h19.8  c0.9,0,0.9-0.5,0.9-0.5C193.2,19.2,193.3,9.1,180.3,9.1 M183.9,22.6c0,0.4-1.3,0.3-1.3,0.3l-10.7-0.1c-0.4,0-0.5-0.5-0.5-0.9  c0,0,0-0.4,0.1-0.6c0.8-2.9,3.3-4.5,7.2-4.5c4.4,0,5.4,2.2,5.4,4.6"/>
<path fill="#333333" d="M120.7,32.6c0,0,3.9-9.4,4.7-14.8C126.7,10.5,123,0,109,0C95.1,0,89,10,86.7,21c-2.3,11,0.7,20.6,14.6,20.5  l21.2,0c0.4,0,0.8-0.3,0.9-0.7l1.8-6.8c0.1-0.4-0.1-0.7-0.5-0.7l-1.7,0l-1.7,0c-0.3,0-0.5-0.2-0.5-0.5  C120.7,32.7,120.7,32.6,120.7,32.6 M113.4,26.8l-1.6,5.4c-0.1,0.4-0.6,0.6-1,0.6h-8.2c-6.2,0-7.7-4.8-6.2-12  C98,13.6,101,9,107.1,8.6c8.4-0.6,10.1,5.3,8,12.1L113.4,26.8z"/>
</svg>
