<svg xmlns="http://www.w3.org/2000/svg" xmlns:xlink="http://www.w3.org/1999/xlink" id="twig-logo" version="1.1" viewBox="0 0 249 249" height="249" width="249">
<defs id="defs108">
    <radialGradient r="32.6243" cy="220.1201" cx="124.0156" gradientTransform="matrix(1,0,0,0.237,0,167.96)" gradientUnits="userSpaceOnUse" id="radialGradient3916" xlink:href="#a"/>
    <linearGradient y2="14.673" x2="122.4741" y1="169.4248" x1="122.4741" gradientUnits="userSpaceOnUse" id="linearGradient3918" xlink:href="#b"/>
    <linearGradient y2="22.0967" x2="115.7788" y1="204.5967" x1="115.7788" gradientUnits="userSpaceOnUse" id="linearGradient3920" xlink:href="#c"/>
    <linearGradient y2="32.7563" x2="119.3433" y1="195.4834" x1="119.3433" gradientUnits="userSpaceOnUse" id="linearGradient3922" xlink:href="#d"/>
    <linearGradient y2="163.1318" x2="107.103" y1="218.7783" x1="107.103" gradientUnits="userSpaceOnUse" id="linearGradient3924" xlink:href="#e"/>
    <linearGradient y2="164.638" x2="106.0728" y1="209.459" x1="105.2163" gradientUnits="userSpaceOnUse" id="linearGradient3926" xlink:href="#f"/>
    <linearGradient y2="170.4628" x2="141.8833" y1="220.5439" x1="141.8833" gradientUnits="userSpaceOnUse" id="linearGradient3928" xlink:href="#g"/>
    <linearGradient y2="167.5781" x2="129.5957" y1="224.3652" x1="129.5957" gradientUnits="userSpaceOnUse" id="linearGradient3930" xlink:href="#h"/>
    <radialGradient r="32.6243" cy="220.1201" cx="124.0156" gradientTransform="matrix(1,0,0,0.237,0,167.96)" gradientUnits="userSpaceOnUse" id="radialGradient3932" xlink:href="#a"/>
    <linearGradient y2="14.673" x2="122.4741" y1="169.4248" x1="122.4741" gradientUnits="userSpaceOnUse" id="linearGradient3934" xlink:href="#b"/>
    <linearGradient y2="22.0967" x2="115.7788" y1="204.5967" x1="115.7788" gradientUnits="userSpaceOnUse" id="linearGradient3936" xlink:href="#c"/>
    <linearGradient y2="32.7563" x2="119.3433" y1="195.4834" x1="119.3433" gradientUnits="userSpaceOnUse" id="linearGradient3938" xlink:href="#d"/>
    <linearGradient y2="163.1318" x2="107.103" y1="218.7783" x1="107.103" gradientUnits="userSpaceOnUse" id="linearGradient3940" xlink:href="#e"/>
    <linearGradient y2="164.638" x2="106.0728" y1="209.459" x1="105.2163" gradientUnits="userSpaceOnUse" id="linearGradient3942" xlink:href="#f"/>
    <linearGradient y2="170.4628" x2="141.8833" y1="220.5439" x1="141.8833" gradientUnits="userSpaceOnUse" id="linearGradient3944" xlink:href="#g"/>
    <linearGradient y2="167.5781" x2="129.5957" y1="224.3652" x1="129.5957" gradientUnits="userSpaceOnUse" id="linearGradient3946" xlink:href="#h"/>
</defs>
<radialGradient gradientUnits="userSpaceOnUse" gradientTransform="matrix(1 0 0 .237 0 167.96)" r="32.6243" cy="220.1201" cx="124.0156" id="a">
    <stop id="stop2" stop-opacity=".92" stop-color="#323232" offset="0"/>
    <stop id="stop4" stop-opacity=".7972" stop-color="#363636" offset=".1302"/>
    <stop id="stop6" stop-opacity=".6687" stop-color="#434343" offset=".2665"/>
    <stop id="stop8" stop-opacity=".5375" stop-color="#585858" offset=".4055"/>
    <stop id="stop10" stop-opacity=".4045" stop-color="#757575" offset=".5465"/>
    <stop id="stop12" stop-opacity=".2701" stop-color="#9B9B9B" offset=".6891"/>
    <stop id="stop14" stop-opacity=".1351" stop-color="#C9C9C9" offset=".8322"/>
    <stop id="stop16" stop-opacity="0" stop-color="#FFF" offset=".9755"/>
</radialGradient>
<linearGradient y2="14.673" x2="122.4741" y1="169.4248" x1="122.4741" gradientUnits="userSpaceOnUse" id="b">
    <stop id="stop21" stop-color="#3D6A06" offset="0"/>
    <stop id="stop23" stop-color="#588710" offset=".1601"/>
    <stop id="stop25" stop-color="#6D9D18" offset=".3296"/>
    <stop id="stop27" stop-color="#7BAE1E" offset=".5135"/>
    <stop id="stop29" stop-color="#84B721" offset=".7208"/>
    <stop id="stop31" stop-color="#87BA22" offset="1"/>
</linearGradient>
<linearGradient y2="22.0967" x2="115.7788" y1="204.5967" x1="115.7788" gradientUnits="userSpaceOnUse" id="c">
    <stop id="stop36" stop-color="#BBE882" offset="0"/>
    <stop id="stop38" stop-opacity=".9176" stop-color="#BEE988" offset=".1446"/>
    <stop id="stop40" stop-opacity=".8037" stop-color="#C8EC9A" offset=".3443"/>
    <stop id="stop42" stop-opacity=".6716" stop-color="#D8F2B7" offset=".5761"/>
    <stop id="stop44" stop-opacity=".5269" stop-color="#EEF9E0" offset=".83"/>
    <stop id="stop46" stop-opacity=".43" stop-color="#FFF" offset="1"/>
</linearGradient>
<linearGradient y2="32.7563" x2="119.3433" y1="195.4834" x1="119.3433" gradientUnits="userSpaceOnUse" id="d">
    <stop id="stop51" stop-color="#48790B" offset="0"/>
    <stop id="stop53" stop-opacity=".43" stop-color="#FFF" offset=".8221"/>
</linearGradient>
<g transform="translate(-71.329874,-8.1891581)" id="g3850">
    <ellipse style="fill:url(#radialGradient3932)" cx="124.016" cy="220.12" rx="34.084" ry="7.039" id="ellipse19"/>
    <path style="fill:url(#linearGradient3934)" d="m 111.974,204.341 h 22.75 c -1.389,-29.562 -9.992,-123.875 -24.5,-182.5 2.625,40.25 5.5,174 1.75,182.5 z" id="path34"/>
    <path style="opacity:0.28000004;fill:url(#linearGradient3936)" d="m 111.974,204.597 h 9.284 c 1.14,-66.734 -11.034,-182.5 -11.034,-182.5 2.625,40.25 5.5,174 1.75,182.5 z" id="path49"/>
    <path style="opacity:0.33000004;fill:url(#linearGradient3938)" d="m 112.814,199.318 9.66,2.809 c 0,0 2.368,-32.052 5.832,-34.501 1.868,-12.285 -13.484,-124.622 -17.574,-143.701 -0.169,-0.698 -0.337,-1.396 -0.508,-2.084 2.394,36.708 4.995,151.167 2.59,177.477 z" id="path56"/>
    <g id="g74">
        <linearGradient id="e" gradientUnits="userSpaceOnUse" x1="107.103" y1="218.77831" x2="107.103" y2="163.13181">
            <stop offset="0" stop-color="#5E7814" id="stop58"/>
            <stop offset=".5093" stop-color="#8AA21F" id="stop60"/>
            <stop offset="1" stop-color="#B1C628" id="stop62"/>
        </linearGradient>
        <path style="fill:url(#linearGradient3940)" d="m 111.349,221.591 14.375,0.625 c 0.344,-27.891 -9.75,-76.125 -37.25,-94.875 14,17.375 24.125,38.625 22.875,94.25 z" id="path65"/>
        <linearGradient id="f" gradientUnits="userSpaceOnUse" x1="105.2163" y1="209.459" x2="106.0728" y2="164.638">
            <stop offset="0" stop-color="#82AF10" id="stop67"/>
            <stop offset=".8221" stop-color="#FFF" stop-opacity="0" id="stop69"/>
        </linearGradient>
        <path style="opacity:0.17000002;fill:url(#linearGradient3942)" d="m 90.414,129.87 c 13.041,16.991 22.242,38.75 21.047,91.919 l 9.825,0.427 c 0.345,-10.73 0.594,-67.31 -30.872,-92.346 z" id="path72"/>
    </g>
    <g id="g98">
        <linearGradient id="g" gradientUnits="userSpaceOnUse" x1="141.8833" y1="220.5439" x2="141.8833" y2="170.4628">
            <stop offset="0" stop-color="#5E7814" id="stop76"/>
            <stop offset=".1416" stop-color="#758E1A" id="stop78"/>
            <stop offset=".3448" stop-color="#8FA620" id="stop80"/>
            <stop offset=".5533" stop-color="#A2B824" id="stop82"/>
            <stop offset=".7683" stop-color="#ADC327" id="stop84"/>
            <stop offset="1" stop-color="#B1C628" id="stop86"/>
        </linearGradient>
        <path style="fill:url(#linearGradient3944)" d="m 138.662,222.528 c 0.446,2.001 -14.375,3.438 -14.875,3 -0.5,-0.438 -10.75,-68.875 37.438,-62 -26.126,1.125 -28.125,36.938 -22.563,59 z" id="path89"/>
        <linearGradient id="h" gradientUnits="userSpaceOnUse" x1="129.5957" y1="224.3652" x2="129.5957" y2="167.57809">
            <stop offset="0" stop-color="#FFF" id="stop91"/>
            <stop offset="1" stop-color="#FFF" stop-opacity="0" id="stop93"/>
        </linearGradient>
        <path style="opacity:0.07999998;fill:url(#linearGradient3946)" d="m 123.784,225.528 c 0.286,0.25 5.257,-0.113 9.377,-0.845 -0.612,-5.772 -3.524,-37.259 3.489,-55.863 -19.457,15.409 -13.253,56.37 -12.866,56.708 z" id="path96"/>
    </g>
    <g style="fill:#a0cb29" id="g102">
        <path d="m 91.724,212.716 5.375,9.25 h 3 m 6.625,4 h 6.5 l -9.625,-25.875 m 40.75,24.25 h 4.25 l 3.125,-20 m 3.5,14.75 h 3.625 l 1.75,-7.375" id="path100"/>
    </g>
    <ellipse style="fill:#ffffff" id="path3815" cx="117.82007" cy="193.98271" rx="3.9792387" ry="4.49827"/>
    <ellipse ry="4.49827" rx="3.9792387" cy="193.98271" cx="129.82007" id="ellipse3817" style="fill:#ffffff"/>
</g>
<g transform="matrix(-1.4185486,0,0,1.1189535,367.7154,-17.669575)" id="g3914">
    <ellipse style="fill:url(#radialGradient3916)" id="ellipse3852" ry="7.039" rx="34.084" cy="220.12" cx="124.016"/>
    <path style="fill:url(#linearGradient3918)" id="path3854" d="m 111.974,204.341 h 22.75 c -1.389,-29.562 -9.992,-123.875 -24.5,-182.5 2.625,40.25 5.5,174 1.75,182.5 z"/>
    <path style="opacity:0.28000004;fill:url(#linearGradient3920)" id="path3856" d="m 111.974,204.597 h 9.284 c 1.14,-66.734 -11.034,-182.5 -11.034,-182.5 2.625,40.25 5.5,174 1.75,182.5 z"/>
    <path style="opacity:0.33000004;fill:url(#linearGradient3922)" id="path3858" d="m 112.814,199.318 9.66,2.809 c 0,0 2.368,-32.052 5.832,-34.501 1.868,-12.285 -13.484,-124.622 -17.574,-143.701 -0.169,-0.698 -0.337,-1.396 -0.508,-2.084 2.394,36.708 4.995,151.167 2.59,177.477 z"/>
    <g id="g3878">
        <linearGradient y2="163.13181" x2="107.103" y1="218.77831" x1="107.103" gradientUnits="userSpaceOnUse" id="linearGradient3866">
            <stop id="stop3860" stop-color="#5E7814" offset="0"/>
            <stop id="stop3862" stop-color="#8AA21F" offset=".5093"/>
            <stop id="stop3864" stop-color="#B1C628" offset="1"/>
        </linearGradient>
        <path style="fill:url(#linearGradient3924)" id="path3868" d="m 111.349,221.591 14.375,0.625 c 0.344,-27.891 -9.75,-76.125 -37.25,-94.875 14,17.375 24.125,38.625 22.875,94.25 z"/>
        <linearGradient y2="164.638" x2="106.0728" y1="209.459" x1="105.2163" gradientUnits="userSpaceOnUse" id="linearGradient3874">
            <stop id="stop3870" stop-color="#82AF10" offset="0"/>
            <stop id="stop3872" stop-opacity="0" stop-color="#FFF" offset=".8221"/>
        </linearGradient>
        <path style="opacity:0.17000002;fill:url(#linearGradient3926)" id="path3876" d="m 90.414,129.87 c 13.041,16.991 22.242,38.75 21.047,91.919 l 9.825,0.427 c 0.345,-10.73 0.594,-67.31 -30.872,-92.346 z"/>
    </g>
    <g id="g3904">
        <linearGradient y2="170.4628" x2="141.8833" y1="220.5439" x1="141.8833" gradientUnits="userSpaceOnUse" id="linearGradient3892">
            <stop id="stop3880" stop-color="#5E7814" offset="0"/>
            <stop id="stop3882" stop-color="#758E1A" offset=".1416"/>
            <stop id="stop3884" stop-color="#8FA620" offset=".3448"/>
            <stop id="stop3886" stop-color="#A2B824" offset=".5533"/>
            <stop id="stop3888" stop-color="#ADC327" offset=".7683"/>
            <stop id="stop3890" stop-color="#B1C628" offset="1"/>
        </linearGradient>
        <path style="fill:url(#linearGradient3928)" id="path3894" d="m 138.662,222.528 c 0.446,2.001 -14.375,3.438 -14.875,3 -0.5,-0.438 -10.75,-68.875 37.438,-62 -26.126,1.125 -28.125,36.938 -22.563,59 z"/>
        <linearGradient y2="167.57809" x2="129.5957" y1="224.3652" x1="129.5957" gradientUnits="userSpaceOnUse" id="linearGradient3900">
            <stop id="stop3896" stop-color="#FFF" offset="0"/>
            <stop id="stop3898" stop-opacity="0" stop-color="#FFF" offset="1"/>
        </linearGradient>
        <path style="opacity:0.07999998;fill:url(#linearGradient3930)" id="path3902" d="m 123.784,225.528 c 0.286,0.25 5.257,-0.113 9.377,-0.845 -0.612,-5.772 -3.524,-37.259 3.489,-55.863 -19.457,15.409 -13.253,56.37 -12.866,56.708 z"/>
    </g>
    <g style="fill:#a0cb29" id="g3908">
        <path id="path3906" d="m 91.724,212.716 5.375,9.25 h 3 m 6.625,4 h 6.5 l -9.625,-25.875 m 40.75,24.25 h 4.25 l 3.125,-20 m 3.5,14.75 h 3.625 l 1.75,-7.375"/>
    </g>
    <ellipse ry="4.49827" rx="3.9792387" cy="193.98271" cx="117.82007" id="ellipse3910" style="fill:#ffffff"/>
    <ellipse style="fill:#ffffff" id="ellipse3912" cx="129.82007" cy="193.98271" rx="3.9792387" ry="4.49827"/>
</g>
<g style="fill:#000000;fill-opacity:1;stroke:none" id="text120" transform="translate(0,-2)">
    <path d="m 67.869141,29.924587 h 26.875 l -1.113282,5.683594 h -9.6875 l -4.570312,23.476562 h -7.519531 l 4.570312,-23.476562 h -9.6875 z" style="fill:#000000" id="path3825"/>
    <path d="m 96.365234,29.924587 h 6.953126 l 0.89844,21.191406 9.16015,-21.191406 h 7.14844 l 0.95703,21.191406 8.84766,-21.191406 h 7.48047 l -12.5586,29.160156 h -8.51562 l -0.97656,-22.167968 -9.4336,22.167968 h -8.710936 z" style="fill:#000000" id="path3827"/>
    <path d="m 142.75195,29.924587 h 7.51953 l -5.68359,29.160156 h -7.51953 z" style="fill:#000000" id="path3829"/>
    <path d="m 178.39648,56.916775 q -2.85156,1.386718 -5.91796,2.070312 -3.06641,0.664063 -6.5625,0.664063 -6.21094,0 -9.76563,-3.144532 -3.55469,-3.164062 -3.55469,-8.613281 0,-3.535156 1.11328,-6.621094 1.11329,-3.105468 3.32032,-5.664062 2.69531,-3.125 6.34765,-4.667969 3.67188,-1.542969 8.37891,-1.542969 2.61719,0 5.27344,0.546875 2.65625,0.546875 5.23437,1.621094 l -1.15234,6.035156 q -2.38281,-1.386718 -4.66797,-2.070312 -2.26563,-0.683594 -4.57031,-0.683594 -5.03907,0 -8.20313,3.359375 -3.16406,3.359375 -3.16406,8.632813 0,3.496093 1.83594,5.429687 1.85547,1.933594 5.21484,1.933594 1.09375,0 2.1875,-0.136719 1.09375,-0.15625 2.20703,-0.46875 l 1.11328,-5.664062 h -4.58984 l 0.95703,-5.039063 h 11.67969 z" style="fill:#000000" id="path3831"/>
</g>
<g transform="matrix(0.75559587,0,0,0.99755185,30.428315,24.293526)" style="fill:#000000;fill-opacity:1;stroke:none" id="text550">
    <path d="m 52.390629,47.726362 h 16.445312 v 2.213542 H 61.934899 V 67.166466 H 59.29167 V 49.939904 h -6.901041 z" style="fill:#999999" id="path717"/>
    <path d="m 79.226566,59.275841 v 1.171875 H 68.210941 q 0.15625,2.473958 1.484375,3.776041 1.341146,1.289063 3.723958,1.289063 1.380208,0 2.669271,-0.338542 1.302083,-0.338541 2.578125,-1.015625 v 2.265625 q -1.289063,0.546875 -2.643229,0.833334 -1.354167,0.286458 -2.747396,0.286458 -3.489583,0 -5.533854,-2.03125 -2.03125,-2.03125 -2.03125,-5.494792 0,-3.580729 1.927083,-5.677083 1.940104,-2.109375 5.221354,-2.109375 2.942709,0 4.648438,1.901042 1.71875,1.888021 1.71875,5.143229 z m -2.395834,-0.703125 q -0.02604,-1.966146 -1.10677,-3.138021 -1.067709,-1.171875 -2.838542,-1.171875 -2.005208,0 -3.216146,1.132813 -1.197916,1.132812 -1.380208,3.190104 z" style="fill:#999999" id="path719"/>
    <path d="m 94.513023,55.382612 q 0.898438,-1.614583 2.148437,-2.382813 1.25,-0.768229 2.942709,-0.768229 2.278641,0 3.515621,1.601563 1.23698,1.588541 1.23698,4.53125 v 8.802083 h -2.40885 v -8.723958 q 0,-2.096354 -0.74219,-3.111979 -0.74219,-1.015625 -2.265624,-1.015625 -1.861979,0 -2.942708,1.236979 -1.080729,1.236979 -1.080729,3.372395 v 8.242188 h -2.408854 v -8.723958 q 0,-2.109375 -0.742188,-3.111979 -0.742187,-1.015625 -2.291666,-1.015625 -1.835938,0 -2.916667,1.25 -1.080729,1.236979 -1.080729,3.359374 v 8.242188 H 83.067711 V 52.583133 h 2.408854 v 2.265625 q 0.820312,-1.341146 1.966146,-1.979167 1.145833,-0.638021 2.721354,-0.638021 1.588541,0 2.695312,0.807292 1.119792,0.807292 1.653646,2.34375 z" style="fill:#999999" id="path721"/>
    <path d="m 111.46615,64.978966 v 7.734375 h -2.40886 V 52.583133 h 2.40886 v 2.213541 q 0.75521,-1.302083 1.90104,-1.927083 1.15885,-0.638021 2.76042,-0.638021 2.65625,0 4.30989,2.109375 1.66667,2.109375 1.66667,5.546875 0,3.4375 -1.66667,5.546875 -1.65364,2.109375 -4.30989,2.109375 -1.60157,0 -2.76042,-0.625 -1.14583,-0.638021 -1.90104,-1.940104 z m 8.15104,-5.091146 q 0,-2.643229 -1.09375,-4.140625 -1.08073,-1.510416 -2.98177,-1.510416 -1.90104,0 -2.99479,1.510416 -1.08073,1.497396 -1.08073,4.140625 0,2.643229 1.08073,4.153646 1.09375,1.497396 2.99479,1.497396 1.90104,0 2.98177,-1.497396 1.09375,-1.510417 1.09375,-4.153646 z" style="fill:#999999" id="path723"/>
    <path d="m 126.07552,46.90605 h 2.39584 v 20.260416 h -2.39584 z" style="fill:#999999" id="path725"/>
    <path d="m 140.09896,59.835737 q -2.90365,0 -4.02344,0.664062 -1.11979,0.664063 -1.11979,2.265625 0,1.276042 0.83333,2.03125 0.84636,0.742188 2.29167,0.742188 1.99219,0 3.1901,-1.40625 1.21094,-1.419271 1.21094,-3.763021 v -0.533854 z m 4.77864,-0.989584 v 8.320313 h -2.39583 v -2.213542 q -0.82031,1.328125 -2.04427,1.966146 -1.22396,0.625 -2.99479,0.625 -2.23959,0 -3.56771,-1.25 -1.31511,-1.263021 -1.31511,-3.372396 0,-2.460937 1.64063,-3.710937 1.65365,-1.25 4.92187,-1.25 h 3.35938 v -0.234375 q 0,-1.653646 -1.09375,-2.552083 -1.08073,-0.911459 -3.04688,-0.911459 -1.25,0 -2.43489,0.299479 -1.1849,0.29948 -2.27865,0.898438 v -2.213542 q 1.31511,-0.507812 2.55209,-0.755208 1.23698,-0.260417 2.40885,-0.260417 3.16406,0 4.72656,1.640625 1.5625,1.640625 1.5625,4.973958 z" style="fill:#999999" id="path727"/>
    <path d="m 152.19532,48.442508 v 4.140625 h 4.93489 v 1.861979 h -4.93489 v 7.916666 q 0,1.783854 0.48177,2.291667 0.49479,0.507812 1.99218,0.507812 h 2.46094 v 2.005209 h -2.46094 q -2.77343,0 -3.82812,-1.028646 -1.05469,-1.041667 -1.05469,-3.776042 v -7.916666 h -1.75781 v -1.861979 h 1.75781 v -4.140625 z" style="fill:#999999" id="path729"/>
    <path d="m 160.29427,52.583133 h 2.39584 v 14.583333 h -2.39584 z m 0,-5.677083 h 2.39584 v 3.033854 h -2.39584 z" style="fill:#999999" id="path731"/>
    <path d="m 179.8125,58.364383 v 8.802083 h -2.39583 v -8.723958 q 0,-2.070313 -0.8073,-3.098959 -0.80729,-1.028645 -2.42187,-1.028645 -1.94011,0 -3.0599,1.236979 -1.11979,1.236979 -1.11979,3.372395 v 8.242188 h -2.40885 V 52.583133 h 2.40885 v 2.265625 q 0.85938,-1.315104 2.01823,-1.966146 1.17188,-0.651042 2.69531,-0.651042 2.51302,0 3.80209,1.5625 1.28906,1.549479 1.28906,4.570313 z" style="fill:#999999" id="path733"/>
    <path d="m 194.21354,59.705528 q 0,-2.604166 -1.08073,-4.036458 -1.06771,-1.432291 -3.00782,-1.432291 -1.92708,0 -3.00781,1.432291 -1.06771,1.432292 -1.06771,4.036458 0,2.591146 1.06771,4.023438 1.08073,1.432291 3.00781,1.432291 1.94011,0 3.00782,-1.432291 1.08073,-1.432292 1.08073,-4.023438 z m 2.39583,5.651042 q 0,3.723958 -1.65365,5.533854 -1.65364,1.822917 -5.0651,1.822917 -1.26302,0 -2.38281,-0.195313 -1.1198,-0.182292 -2.17448,-0.572917 v -2.330729 q 1.05468,0.572917 2.08333,0.846355 1.02865,0.273437 2.09635,0.273437 2.35678,0 3.52865,-1.236979 1.17188,-1.223958 1.17188,-3.710938 v -1.184895 q -0.74219,1.289062 -1.90105,1.927083 -1.15885,0.638021 -2.77343,0.638021 -2.6823,0 -4.32292,-2.044271 -1.64063,-2.044271 -1.64063,-5.416667 0,-3.385416 1.64063,-5.429687 1.64062,-2.044271 4.32292,-2.044271 1.61458,0 2.77343,0.638021 1.15886,0.638021 1.90105,1.927083 v -2.213541 h 2.39583 z" style="fill:#999999" id="path735"/>
</g>
<g transform="matrix(0.4921875,0,0,0.4921875,54.040652,39.820852)" id="g993">
    <g style="opacity:0.5" transform="translate(0,126.167)" id="g31">
        <g style="" id="g11">
            <circle style="" cx="58.657001" cy="58.07" r="28.072001" id="circle7"/>
            <path style="fill:#ffffff" d="m 70.93,40.385 c -2.851,0.1 -5.342,1.672 -7.193,3.846 -2.053,2.384 -3.417,5.213 -4.401,8.099 -1.759,-1.442 -3.116,-3.308 -5.938,-4.122 -2.183,-0.627 -4.473,-0.369 -6.58,1.201 -0.999,0.746 -1.686,1.873 -2.013,2.932 -0.848,2.754 0.889,5.205 1.679,6.086 l 1.725,1.846 c 0.356,0.363 1.211,1.309 0.794,2.664 -0.453,1.475 -2.229,2.428 -4.052,1.867 -0.814,-0.252 -1.984,-0.857 -1.721,-1.709 0.108,-0.35 0.358,-0.613 0.493,-0.912 0.123,-0.26 0.181,-0.454 0.218,-0.568 0.333,-1.088 -0.122,-2.502 -1.286,-2.861 -1.087,-0.332 -2.197,-0.068 -2.628,1.329 -0.49,1.591 0.271,4.472 4.344,5.729 4.772,1.467 8.809,-1.133 9.381,-4.521 0.361,-2.122 -0.599,-3.7 -2.354,-5.729 l -1.43,-1.581 c -0.867,-0.867 -1.164,-2.342 -0.268,-3.475 0.757,-0.957 1.834,-1.365 3.601,-0.886 2.577,0.698 3.726,2.487 5.642,3.93 -0.791,2.595 -1.309,5.2 -1.776,7.538 l -0.287,1.74 c -1.371,7.186 -2.416,11.131 -5.134,13.396 -0.547,0.391 -1.331,0.973 -2.51,1.014 -0.619,0.02 -0.818,-0.406 -0.828,-0.592 -0.014,-0.434 0.353,-0.633 0.596,-0.828 0.363,-0.199 0.912,-0.527 0.875,-1.578 -0.041,-1.246 -1.071,-2.324 -2.559,-2.273 -1.117,0.037 -2.816,1.086 -2.752,3.01 0.066,1.984 1.916,3.473 4.706,3.377 1.492,-0.049 4.822,-0.656 8.103,-4.557 3.819,-4.473 4.888,-9.6 5.692,-13.352 l 0.896,-4.953 c 0.499,0.059 1.031,0.1 1.611,0.113 4.757,0.102 7.136,-2.363 7.173,-4.155 0.023,-1.085 -0.712,-2.152 -1.742,-2.128 -0.736,0.021 -1.662,0.511 -1.884,1.529 -0.217,1 1.514,1.902 0.161,2.779 -0.961,0.623 -2.684,1.061 -5.11,0.705 l 0.442,-2.439 c 0.899,-4.624 2.011,-10.312 6.224,-10.449 0.307,-0.016 1.431,0.014 1.457,0.756 0.007,0.248 -0.054,0.312 -0.344,0.88 -0.297,0.442 -0.408,0.819 -0.395,1.253 0.042,1.18 0.939,1.956 2.238,1.91 1.737,-0.057 2.237,-1.748 2.209,-2.618 -0.072,-2.045 -2.226,-3.335 -5.075,-3.243 z" id="path9"/>
        </g>
        <g style="" id="g29">
            <g style="" id="g15">
                <path style="" d="m 200.791,50.172 c 6.474,0 10.813,4.677 10.813,11.147 0,6.097 -4.424,11.146 -10.813,11.146 -6.428,0 -10.852,-5.049 -10.852,-11.146 0,-6.47 4.338,-11.147 10.852,-11.147 z m 0,19.125 c 4.593,0 6.637,-4.176 6.637,-7.978 0,-4.048 -2.463,-7.972 -6.637,-7.972 -4.216,0 -6.68,3.924 -6.68,7.972 0,3.802 2.047,7.978 6.68,7.978 z" id="path13"/>
            </g>
            <path style="" d="m 189.401,52.154 v -1.481 h -5.638 v -2.024 c 0,-2.881 0.419,-5.055 3.798,-5.055 0.062,0 0.128,0.006 0.193,0.009 0.007,0 0.005,-0.011 0.013,-0.011 0.938,0.068 1.72,-0.695 1.772,-1.633 l 0.068,-1.286 c -0.793,-0.126 -1.63,-0.25 -2.63,-0.25 -5.803,0 -7.138,3.382 -7.138,8.56 v 1.69 h -5.015 v 1.653 c 0.129,0.857 0.863,1.518 1.758,1.518 0.004,0 0.009,0.004 0.014,0.004 h 3.243 v 18.119 h 2.16 c 0.005,0 0.002,0 0.007,0 0.9,0 1.634,-0.678 1.756,-1.541 V 53.848 h 3.926 c 0.924,-0.031 1.667,-0.77 1.713,-1.694 z" id="path17"/>
            <path style="" d="m 137.125,50.673 c -0.006,0 -0.011,0.005 -0.021,0.005 -0.826,0 -1.627,0.568 -1.977,1.337 l -5.399,16.278 h -0.084 l -5.281,-16.27 c -0.346,-0.773 -1.15,-1.346 -1.982,-1.346 -0.01,0 -0.013,-0.005 -0.021,-0.005 h -2.737 l 7.223,19.874 c 0.252,0.711 0.754,1.797 0.754,2.254 0,0.42 -1.17,5.26 -4.679,5.26 -0.086,0 -0.174,-0.01 -0.259,-0.016 -0.895,-0.049 -1.571,0.576 -1.72,1.539 l -0.107,1.359 c 0.71,0.125 1.422,0.293 2.674,0.293 5.176,0 6.721,-4.721 8.184,-8.811 l 7.847,-21.753 h -2.415 z" id="path19"/>
            <path style="" d="m 112.177,54.998 c -3.24,-1.658 -6.787,-2.785 -6.849,-6.121 0.01,-3.543 3.266,-4.474 5.774,-4.471 0.012,-0.002 0.022,-0.002 0.028,-0.002 1.09,0 1.961,0.108 2.812,0.295 0.011,0 0.009,-0.014 0.022,-0.014 0.9,0.066 1.655,-0.637 1.76,-1.523 l 0.072,-1.287 c -1.645,-0.408 -3.364,-0.617 -4.86,-0.617 -5.455,0.034 -9.506,2.779 -9.519,8.018 0.006,4.58 3.092,6.355 6.414,7.963 3.256,1.566 6.821,2.858 6.852,6.639 -0.018,3.943 -3.824,5.396 -6.447,5.402 -1.534,-0.006 -3.199,-0.387 -4.603,-0.83 -0.879,-0.145 -1.6,0.631 -1.715,1.658 l -0.118,1.146 c 1.929,0.623 3.906,1.168 5.895,1.168 0,0 0.002,0 0.004,0 0.005,0 0.012,0 0.018,0 6.112,-0.045 10.862,-2.482 10.881,-8.811 -0.007,-4.882 -3.116,-6.933 -6.421,-8.613 z" id="path21"/>
            <path style="" d="m 171.534,71.967 c 0.003,0 0.003,0 0.005,0 0.847,0 1.554,-0.596 1.731,-1.389 V 58.314 c 0,-4.635 -1.958,-8.143 -7.389,-8.143 -1.92,0 -5.134,1.088 -6.596,4.135 -1.126,-2.881 -3.59,-4.135 -6.051,-4.135 -3.133,0 -5.263,1.127 -6.765,3.592 h -0.084 v -1.324 c -0.012,-0.975 -0.801,-1.762 -1.777,-1.762 -0.009,0 -0.013,-0.005 -0.019,-0.005 h -1.877 v 21.294 h 2.124 c 0.003,0 0.003,0 0.005,0 0.984,0 1.78,-0.799 1.78,-1.781 0,-0.027 0.009,-0.037 0.018,-0.055 v -8.895 c 0,-3.965 1.585,-7.889 5.592,-7.889 3.171,0 3.802,3.297 3.802,5.928 v 12.691 h 2.153 c 0.002,0 0.002,0 0.006,0 0.93,0 1.679,-0.715 1.762,-1.623 v -9.107 c 0,-3.965 1.588,-7.889 5.595,-7.889 3.173,0 3.8,3.297 3.8,5.928 v 12.691 h 2.185 z" id="path23"/>
            <path style="" d="m 232.182,71.967 c 0.002,0 0.002,0 0.005,0 0.957,0 1.728,-0.756 1.773,-1.703 V 59.316 c 0,-5.719 -2.466,-9.145 -7.977,-9.145 -2.964,0 -5.801,1.463 -6.973,3.886 h -0.082 v -1.591 c 0,-0.002 -0.004,-0.002 -0.004,-0.006 0,-0.987 -0.799,-1.783 -1.779,-1.783 -0.011,0 -0.013,-0.005 -0.02,-0.005 h -1.998 v 21.294 h 2.157 c 0,0 0,0 0.004,0 0.934,0 1.691,-0.727 1.763,-1.643 v -8.211 c 0,-5.176 2.006,-8.766 6.473,-8.766 3.427,0.207 4.507,2.627 4.507,7.597 v 11.022 h 2.151 z" id="path25"/>
            <path style="" d="m 253.31,50.673 c -0.01,0 -0.014,0.005 -0.022,0.005 -0.827,0 -1.629,0.568 -1.978,1.337 l -5.397,16.278 h -0.088 l -5.282,-16.27 c -0.346,-0.773 -1.15,-1.346 -1.98,-1.346 -0.008,0 -0.013,-0.005 -0.02,-0.005 h -2.737 l 7.224,19.874 c 0.25,0.711 0.755,1.797 0.755,2.254 0,0.42 -1.171,5.26 -4.681,5.26 -0.085,0 -0.171,-0.01 -0.259,-0.016 -0.895,-0.049 -1.568,0.576 -1.722,1.539 l -0.105,1.359 c 0.709,0.125 1.422,0.293 2.675,0.293 5.176,0 6.72,-4.721 8.184,-8.811 l 7.849,-21.753 h -2.416 z" id="path27"/>
        </g>
    </g>
</g>
</svg>
