<svg xmlns="http://www.w3.org/2000/svg" id="solr-logo" version="1.1" viewBox="0 0 128 128" height="128px" width="128px">
<defs id="defs928"/>
<g id="layer1">
    <g id="g881" transform="matrix(0.77983914,0,0,0.5566468,4.0303701,65.471921)">
        <g id="g10" style="fill:#d9411e;fill-opacity:1">
            <path d="M 43.1,73.3 C 40.8,72.1 38.1,71.2 35.2,70.7 32.4,70.2 29.5,70 26.6,70 24.3,70 21.9,69.8 19.6,69.4 17.3,69 15.3,68.3 13.5,67.3 11.8,66.3 10.3,64.9 9.2,63.2 8.1,61.5 7.6,59.2 7.6,56.5 7.8,54 8.3,52 9.4,50.3 c 1.1,-1.7 2.5,-3.1 4.1,-4.1 1.7,-1 3.7,-1.8 5.9,-2.3 3.8,-0.8 7.7,-0.9 11.7,-0.4 1.6,0.2 3.1,0.6 4.6,1.2 1.5,0.5 2.9,1.3 4.1,2.2 1.2,0.9 2.3,2.1 3.2,3.4 l 0.5,0.8 3.8,-1.6 -0.8,-1.1 c -1,-1.5 -2.2,-2.8 -3.4,-3.9 -1.2,-1.2 -2.7,-2.1 -4.4,-2.9 -1.6,-0.8 -3.5,-1.4 -5.5,-1.8 -2,-0.4 -4.4,-0.6 -7,-0.6 -2.5,0 -5.1,0.3 -7.7,0.9 -2.6,0.6 -5.1,1.5 -7.3,2.8 -2.2,1.3 -4.1,3.1 -5.5,5.3 -1.4,2.2 -2.1,5 -2.1,8.1 0,3.3 0.7,6.2 2,8.4 1.3,2.3 3.1,4.1 5.2,5.4 2.1,1.3 4.6,2.3 7.3,2.8 2.7,0.5 5.5,0.8 8.4,0.8 2.3,0 4.7,0.2 7.2,0.5 2.4,0.3 4.7,1 6.7,2 2,1 3.6,2.3 4.9,4 1.2,1.6 1.8,3.8 1.8,6.6 0,2.4 -0.6,4.5 -1.8,6.2 -1.2,1.7 -2.8,3.1 -4.7,4.2 -1.9,1.1 -4.1,1.9 -6.5,2.4 -2.4,0.5 -4.8,0.8 -7.1,0.8 -3.9,0 -7.7,-0.7 -11.4,-2.2 C 11.9,96.7 8.7,94.6 6,91.7 l -0.7,-0.8 -3,2.6 0.8,0.8 c 2.7,2.7 6.1,5.1 10,7 4,2 8.7,3 13.9,3 2.5,0 5.2,-0.3 7.9,-0.9 2.8,-0.6 5.4,-1.6 7.8,-2.9 2.4,-1.4 4.4,-3.2 6,-5.4 1.6,-2.3 2.4,-5.1 2.4,-8.4 0,-3.4 -0.8,-6.2 -2.2,-8.5 -1.5,-1.9 -3.4,-3.6 -5.8,-4.9 z" id="path2" style="fill:#d9411e;fill-opacity:1"/>
            <path d="m 95.3,63.7 c -2,-2.3 -4.4,-4.2 -7.2,-5.7 -2.8,-1.5 -6,-2.2 -9.4,-2.2 -3.1,0 -6.1,0.7 -8.9,2 -2.7,1.3 -5.2,3.1 -7.2,5.4 -2,2.2 -3.7,4.9 -4.9,7.9 -1.2,3 -1.8,6.2 -1.8,9.4 0,3.1 0.6,6.1 1.6,9 1.1,2.9 2.6,5.5 4.6,7.8 2,2.3 4.4,4.2 7.2,5.6 2.8,1.4 5.9,2.2 9.3,2.2 v 0 0 c 3.2,-0.1 6.2,-0.8 9,-2.1 2.7,-1.3 5.2,-3.2 7.2,-5.4 2,-2.2 3.7,-4.9 4.8,-7.8 1.2,-2.9 1.7,-6 1.7,-9.3 0,-2.9 -0.5,-5.9 -1.6,-8.8 -0.9,-3 -2.4,-5.7 -4.4,-8 z m -16.6,37.4 c -2.7,0 -5.2,-0.6 -7.4,-1.7 -2.2,-1.1 -4.2,-2.7 -5.8,-4.6 -1.7,-1.9 -3,-4.1 -3.9,-6.6 -0.9,-2.5 -1.5,-5.1 -1.6,-7.8 0,-2.4 0.4,-4.9 1.3,-7.4 0.9,-2.5 2.2,-4.7 3.8,-6.7 1.7,-2 3.7,-3.6 6,-4.8 2.3,-1.2 4.8,-1.8 7.6,-1.8 2.6,0 5.1,0.6 7.3,1.7 2.3,1.2 4.3,2.7 6,4.6 1.7,1.9 3,4.1 4,6.6 1,2.5 1.5,5.1 1.5,7.7 0,2.4 -0.4,4.9 -1.3,7.4 -0.9,2.5 -2.2,4.7 -3.8,6.7 -1.7,2 -3.7,3.6 -6,4.8 -2.3,1.3 -4.9,1.9 -7.7,1.9 z" id="path4" style="fill:#d9411e;fill-opacity:1"/>
            <path d="m 122.1,100 c -0.7,0.2 -1.3,0.3 -1.8,0.4 -0.5,0.1 -1.1,0.2 -1.7,0.3 -0.6,0.1 -1.1,0.1 -1.6,0.1 -1.3,0 -2.3,-0.4 -3,-1.4 -0.8,-1 -1.1,-2 -1.1,-3 V 38 h -4 v 58.3 c 0,2.2 0.7,4.1 2.1,5.8 1.4,1.7 3.4,2.5 6,2.5 0.8,0 1.6,0 2.4,-0.1 0.7,-0.1 1.4,-0.2 2,-0.3 0.6,-0.1 1.3,-0.2 2.1,-0.4 l 1.4,-0.3 -1.8,-3.7 z" id="path6" style="fill:#d9411e;fill-opacity:1"/>
            <path d="m 139.3,59.8 c -2.1,1.5 -3.9,3.3 -5.5,5.5 v -8.8 h -4 v 47.7 h 4 V 74.5 c 0.6,-1.9 1.3,-3.8 2.3,-5.4 1,-1.7 2.1,-3.1 3.5,-4.4 1.4,-1.2 3,-2.2 4.8,-3 1.8,-0.7 3.8,-1.2 6,-1.3 l 1.1,-0.1 v -3.9 h -1.1 c -4.2,0.1 -8,1.2 -11.1,3.4 z" id="path8" style="fill:#d9411e;fill-opacity:1"/>
        </g>
    </g>
    <g id="g28" transform="matrix(1.5234328,0,0,1.21,-197.72576,1.096)">
        <path id="path12" d="m 196.2,13 -33,35.7 41.5,-19.1 C 203.5,23.2 200.5,17.5 196.2,13 Z" style="fill:#262130"/>
        <path id="path14" d="m 171.7,2.4 c -4.6,0 -8.9,0.9 -12.9,2.6 L 154.4,42.3 176.5,2.8 C 175,2.5 173.4,2.4 171.7,2.4 Z" style="fill:#262130"/>
        <path id="path16" d="m 205,31.6 -39.3,22 36.9,-4.4 c 1.7,-4.1 2.7,-8.5 2.7,-13.2 0,-1.5 -0.1,-3 -0.3,-4.4 z" style="fill:#262130"/>
        <path id="path18" d="m 190.5,63.8 c 4.4,-3 8,-7 10.6,-11.6 L 166.6,59 Z" style="fill:#262130"/>
        <path id="path20" d="m 178.6,3.1 -19.2,41.7 35.7,-33 C 190.5,7.5 184.9,4.4 178.6,3.1 Z" style="fill:#262130"/>
        <path id="path22" d="m 174.6,69.4 c 3.7,-0.3 7.3,-1.2 10.5,-2.6 l -19.4,-2.3 z" style="fill:#262130"/>
        <path id="path24" d="m 141.1,22.2 c -1.5,3.3 -2.5,7 -2.8,10.8 l 5.2,9.3 z" style="fill:#262130"/>
        <path id="path26" d="m 155.9,6.3 c -4.7,2.5 -8.8,6.2 -11.8,10.6 l 4.9,24.5 z" style="fill:#262130"/>
    </g>
</g>
</svg>
